# xmcd
#
# Track frame offsets: 
#        150
#        21282
#        49372
#        63042
#        77560
#        106872
#        118832
#        138970
#        155512
#        181620
#
# Disc length: 2832 seconds
#
# Revision: 6
# Processed by: cddbd v1.5.2PL0 Copyright (c) Steve Scherf et al.
# Submitted via: ExactAudioCopy v1.0b3
#
DISCID=780b0e0a
DTITLE=中島みゆき - 親愛なる者へ
DYEAR=1979
DGENRE=JPop
TTITLE0=裸足で走れ
TTITLE1=タクシードライバー
TTITLE2=泥海の中から
TTITLE3=信じ難いもの
TTITLE4=根雪(ねゆき)
TTITLE5=片想
TTITLE6=ダイヤル117
TTITLE7=小石のように
TTITLE8=狼になりたい
TTITLE9=断崖-親愛なる者へ-
EXTD=YEAR: 1979
EXTT0=
EXTT1=
EXTT2=
EXTT3=
EXTT4=
EXTT5=
EXTT6=
EXTT7=
EXTT8=
EXTT9=
PLAYORDER=
